<?xml version="1.0" encoding="UTF-8" standalone="no"?>
<svg
   width="90"
   height="25"
   viewBox="0 0 90 25"
   fill="none"
   version="1.1"
   id="svg253"
   sodipodi:docname="logo-white.svg"
   inkscape:version="1.2.2 (b0a8486541, 2022-12-01)"
   xmlns:inkscape="http://www.inkscape.org/namespaces/inkscape"
   xmlns:sodipodi="http://sodipodi.sourceforge.net/DTD/sodipodi-0.dtd"
   xmlns="http://www.w3.org/2000/svg"
   xmlns:svg="http://www.w3.org/2000/svg">
  <defs
     id="defs257" />
  <sodipodi:namedview
     id="namedview255"
     pagecolor="#ffffff"
     bordercolor="#000000"
     borderopacity="0.25"
     inkscape:showpageshadow="2"
     inkscape:pageopacity="0.0"
     inkscape:pagecheckerboard="0"
     inkscape:deskcolor="#d1d1d1"
     showgrid="false"
     inkscape:zoom="3.6382352"
     inkscape:cx="47.275669"
     inkscape:cy="-25.424415"
     inkscape:window-width="1366"
     inkscape:window-height="700"
     inkscape:window-x="0"
     inkscape:window-y="0"
     inkscape:window-maximized="1"
     inkscape:current-layer="svg253" />
  <path
     style="fill:#ffffff;stroke-width:0.106919"
     d="m 32.161252,24.566899 c -1.801452,-0.542424 -2.046587,-2.5476 -0.491639,-4.021534 0.964961,-0.914685 1.959847,-1.406732 4.925193,-2.435881 1.69079,-0.586803 3.311726,-1.247118 4.357641,-1.775162 0.535241,-0.270224 0.63627,-0.381602 1.097382,-1.209821 0.279331,-0.50171 0.507868,-0.935643 0.507868,-0.964297 0,-0.02864 -0.301647,0.249555 -0.670331,0.618238 -0.722997,0.722991 -1.409737,1.137105 -1.909264,1.151311 -0.694087,0.01972 -1.114346,-0.499504 -1.039496,-1.284333 l 0.03927,-0.412006 -0.687067,0.582859 c -1.237396,1.049715 -2.045459,1.218534 -2.480093,0.51814 -0.166525,-0.268343 -0.195638,-0.446556 -0.14242,-0.871884 l 0.06689,-0.534596 -0.717659,0.77937 c -0.788656,0.856468 -1.337693,1.198644 -1.923295,1.198644 -2.023036,0 -1.660821,-3.04781 0.642569,-5.406777 0.834437,-0.8545679 1.615294,-1.308945 2.411523,-1.4032468 0.72731,-0.086135 1.432478,0.1308056 1.765609,0.5431849 0.147856,0.1830359 0.390066,0.4690859 0.538239,0.6356659 0.243063,0.273254 0.254678,0.325529 0.118815,0.534596 -1.027381,1.580989 -2.011868,4.134297 -1.594068,4.134297 0.379746,0 2.480088,-1.923378 2.480088,-2.271125 0,-0.1861 0.939855,-2.125779 1.327801,-2.7403268 0.177801,-0.2816503 0.357516,-0.4414524 0.496483,-0.4414524 0.320848,0 0.824316,0.289317 0.89589,0.5148152 0.03878,0.122212 -0.236024,0.81936 -0.727494,1.845539 -0.76068,1.588278 -1.244242,2.811105 -1.244242,3.146435 0,0.384155 0.618514,0.04566 1.40236,-0.767482 0.762416,-0.790909 1.286603,-1.516476 2.166534,-2.998861 0.806355,-1.3584371 1.187439,-1.847534 1.439107,-1.8469651 0.253065,4.008e-4 0.872581,0.3983682 0.872581,0.5602983 0,0.1300278 -1.276576,3.1263638 -1.854624,4.3531018 -0.15123,0.320948 -0.257012,0.601504 -0.23507,0.623451 0.08856,0.08856 1.832911,-1.01634 2.097978,-1.328886 0.09277,-0.109382 0.225229,-0.39742 0.294369,-0.64008 0.298087,-1.046282 1.709098,-2.745334 2.819707,-3.3953291 0.671461,-0.3929777 1.581103,-0.4935419 2.072178,-0.2290832 0.488144,0.2628841 0.610115,0.6614054 0.409332,1.3375013 -0.239709,0.807188 -1.007935,1.515375 -2.337443,2.154782 -0.591015,0.284241 -1.133606,0.517489 -1.205756,0.518335 -0.345061,0.0042 -0.691845,1.166277 -0.471085,1.578788 0.262625,0.490714 1.147412,0.347981 2.219708,-0.358082 0.864318,-0.569121 2.538493,-2.21121 3.247405,-3.185169 0.538998,-0.740517 0.855356,-0.997438 0.855356,-0.694643 0,0.297123 -1.106748,1.734332 -2.133664,2.770755 -2.122161,2.141808 -3.568841,2.820037 -4.772423,2.237394 -0.439919,-0.212961 -0.792131,-0.705336 -0.792131,-1.107358 0,-0.238361 -0.140433,-0.214329 -0.610037,0.104391 -0.22314,0.15144 -0.811627,0.476208 -1.307763,0.72171 -0.611967,0.302819 -0.955808,0.543484 -1.069188,0.748369 -3.161032,5.711712 -6.488786,8.546649 -9.98899,8.509681 -0.478569,-0.0051 -1.001762,-0.04883 -1.162654,-0.09727 z m 1.529432,-0.81428 c 1.715647,-0.509033 3.424111,-1.808356 5.256347,-3.997565 0.802412,-0.958745 2.006868,-2.584627 2.006868,-2.709047 0,-0.03132 -0.367347,0.112773 -0.816324,0.320216 -0.448981,0.20744 -1.543106,0.640994 -2.431389,0.963449 -0.888281,0.322456 -2.023572,0.755388 -2.522866,0.962072 -1.805839,0.747528 -3.205495,1.753223 -3.648476,2.621543 -0.224789,0.440618 -0.267288,1.158474 -0.08839,1.492767 0.265937,0.496908 1.233763,0.646367 2.24422,0.346565 z m 0.881675,-9.48038 c 1.254183,-1.27057 2.74054,-3.652707 2.584973,-4.142855 -0.1805,-0.5687014 -1.583049,0.164826 -2.39578,1.252979 -0.885919,1.186127 -1.697314,3.165044 -1.457103,3.553715 0.167053,0.270297 0.537026,0.07659 1.26791,-0.663839 z m 15.010764,-2.57981 c 0.470469,-0.426114 1.100469,-1.347833 1.100469,-1.610053 0,-0.03136 -0.129858,-0.05701 -0.288578,-0.05701 -0.207588,0 -0.425142,0.146422 -0.775169,0.521737 -0.458735,0.491876 -1.078076,1.422054 -1.247625,1.873777 -0.07518,0.200273 -0.07057,0.200273 0.277517,0 0.194683,-0.112015 0.614703,-0.439815 0.933386,-0.728449 z m -41.8595262,6.337 C 7.0805092,17.782329 6.4178933,17.15466 6.0941696,16.48593 L 5.8800016,16.043525 5.1408904,15.981563 C 3.1877632,15.817821 2.0256231,14.50384 2.0006711,12.431059 1.9877672,11.358849 2.1590161,10.632586 2.6813916,9.5442266 3.7097638,7.4016338 5.8736428,5.6470777 8.0980501,5.1521943 8.8189115,4.9918163 9.0094634,4.8970186 9.5274389,4.4410783 10.634927,3.4662265 11.859951,2.9686655 13.152597,2.9686655 c 1.286935,0 2.15399,0.4676217 2.639082,1.4233165 0.983055,1.936736 -0.291787,5.3907715 -2.990466,8.102323 -1.810889,1.819528 -3.7959036,2.981584 -5.8431019,3.42063 l -0.5235933,0.112289 0.2174064,0.368472 c 1.318095,2.234009 4.1471468,1.316971 8.1077778,-2.628142 1.225448,-1.220645 2.470471,-2.614069 4.060142,-4.5440864 1.580565,-1.9189585 2.954453,-3.5273983 3.698799,-4.3302474 0.299865,-0.323433 0.757446,-0.823736 1.016847,-1.1117822 0.259398,-0.2880461 1.087322,-1.0638352 1.83983,-1.7239715 1.506497,-1.32157134 2.481284,-1.90708334 3.079861,-1.84993854 0.328526,0.0313745 0.361969,0.0654113 0.349135,0.35544532 -0.0079,0.17641756 -0.482636,1.33114782 -1.055178,2.56607022 -2.092022,4.5123193 -3.04543,6.9174585 -3.729744,9.4089365 -0.357927,1.303163 -0.707248,3.029486 -0.707248,3.495205 0,0.292014 0.174047,0.148552 0.248945,-0.205201 0.165887,-0.783511 2.644533,-5.015726 4.27503,-7.2994903 1.806112,-2.52974 4.934014,-5.8549415 6.652486,-7.0721102 1.352053,-0.9576423 2.94015,-1.65646412 3.192007,-1.404603 0.03319,0.03318739 -0.263236,0.37965427 -0.658702,0.76995446 -1.365511,1.34767934 -2.57195,3.17915844 -3.947373,5.99244034 -1.837097,3.7575877 -2.706928,6.6333937 -2.701445,8.9313947 0.0032,1.395344 0.230161,1.715095 0.903631,1.273822 0.539468,-0.353475 0.672607,0.204105 0.153115,0.641228 -0.571829,0.481164 -1.296353,0.342041 -1.991065,-0.382321 -0.42317,-0.441238 -0.722334,-1.109852 -0.895352,-2.00109 -0.226103,-1.164665 0.117434,-3.112126 0.907573,-5.14492 C 30.236333,8.1118508 31.858834,5.2932137 33.132491,3.736717 33.406064,3.4023926 33.702068,3.0339234 33.790278,2.9179004 34.0138,2.6238905 33.046965,3.4171385 32.729212,3.7884627 32.58667,3.9550338 32.137982,4.4489133 31.732129,4.8859706 29.97598,6.7771305 28.23396,9.2939952 26.24629,12.811889 c -1.868504,3.306987 -2.528184,4.394245 -2.747956,4.529054 -0.292454,0.179395 -0.720474,-0.125598 -1.035592,-0.737917 -0.258525,-0.502371 -0.27325,-0.620454 -0.27325,-2.191097 0,-1.806092 0.119331,-2.537776 0.715411,-4.38656 0.730961,-2.2671369 1.791002,-4.5622774 3.147566,-6.8149427 0.433416,-0.7197206 0.78803,-1.3433896 0.78803,-1.3859375 0,-0.3024214 -2.404907,2.5047398 -3.957173,4.6190675 -2.539723,3.4593375 -3.934536,5.2655057 -4.844591,6.2733517 -2.382264,2.638268 -4.956927,4.535441 -7.148124,5.267186 -1.0561465,0.352697 -2.320007,0.37079 -3.1670142,0.04535 z M 5.6944544,15.130778 C 5.5453437,14.462339 5.6139752,12.249303 5.8129898,11.308398 6.1980231,9.4880899 6.957954,7.5803018 7.7933996,6.3366334 8.3021625,5.57928 8.2101857,5.4911635 7.33104,5.8936486 5.3071912,6.8201985 3.659433,8.6920798 2.9410754,10.880721 c -0.2352844,0.716848 -0.270215,2.326994 -0.063414,2.922732 0.3393396,0.977501 1.3147916,1.642678 2.4425655,1.665626 l 0.4517352,0.0091 z m 1.2654953,0.175269 c 1.3542197,-0.402158 3.2948233,-1.614625 4.5739093,-2.857725 2.006711,-1.950248 3.329355,-4.1964971 3.648934,-6.1969742 0.258635,-1.6189765 -0.609927,-2.7480894 -2.11394,-2.7480894 -0.814039,0 -1.672802,0.3010141 -2.58071,0.9045905 C 9.4887952,5.072215 9.4342833,5.1515409 9.8203524,5.3795999 10.579189,5.8278548 10.931514,6.9581733 10.709302,8.2314828 10.562697,9.07154 9.9431665,10.347446 9.5013591,10.7192 9.2027921,10.970429 9.1488337,10.983546 9.0051241,10.839838 8.8614112,10.696125 8.8873189,10.615521 9.2434087,10.098496 10.385022,8.4409285 10.449686,6.3813506 9.3795612,5.7620082 9.083587,5.5907113 9.0746842,5.5936186 8.7651461,5.962414 7.189001,7.8403041 5.9202716,11.917064 6.1439196,14.385095 c 0.062125,0.685603 0.1417237,1.093173 0.2134898,1.093173 0.012416,0 0.2835838,-0.0775 0.6025403,-0.172221 z M 54.585724,9.0363557 C 54.009141,8.5403673 54.32303,7.6731278 55.079142,7.6731278 c 0.704127,0 1.014212,0.9422309 0.454878,1.382195 -0.361874,0.2846597 -0.600886,0.2798773 -0.948296,-0.01895 z m 0.927569,-0.1502212 c 0.256606,-0.2322276 0.248534,-0.625394 -0.01831,-0.8922469 -0.272641,-0.2726553 -0.539486,-0.2713246 -0.835193,0.00415 -0.276206,0.257329 -0.296109,0.5010972 -0.0675,0.8274013 0.198956,0.2840495 0.641992,0.3132401 0.921058,0.060685 z M 55.281141,8.7298621 c 0,-0.069689 -0.111271,-0.098112 -0.2673,-0.068286 -0.313866,0.059999 -0.340064,-0.00281 -0.08039,-0.1927488 0.102822,-0.075184 0.148314,-0.1753212 0.101086,-0.2225305 -0.04724,-0.04721 -0.133927,-0.01508 -0.192693,0.071447 -0.08636,0.1270113 -0.100327,0.1163623 -0.07313,-0.05533 0.04009,-0.253107 0.352753,-0.3384612 0.572304,-0.1562487 0.113091,0.093862 0.125063,0.1678818 0.04302,0.2666107 -0.07899,0.095125 -0.07942,0.1577369 -10e-4,0.2059623 0.142507,0.08807 0.146006,0.2705065 0.0054,0.2705065 -0.05883,0 -0.106937,-0.053717 -0.106937,-0.1193824 z"
     id="path436" />
</svg>
