<?xml version="1.0" encoding="UTF-8" standalone="no"?>
<svg
   width="170"
   height="70"
   viewBox="0 0 170 70"
   fill="none"
   version="1.1"
   id="svg22"
   sodipodi:docname="logo.svg"
   inkscape:version="1.2.2 (b0a8486541, 2022-12-01)"
   xmlns:inkscape="http://www.inkscape.org/namespaces/inkscape"
   xmlns:sodipodi="http://sodipodi.sourceforge.net/DTD/sodipodi-0.dtd"
   xmlns="http://www.w3.org/2000/svg"
   xmlns:svg="http://www.w3.org/2000/svg">
  <defs
     id="defs26" />
  <sodipodi:namedview
     id="namedview24"
     pagecolor="#ffffff"
     bordercolor="#000000"
     borderopacity="0.25"
     inkscape:showpageshadow="2"
     inkscape:pageopacity="0.0"
     inkscape:pagecheckerboard="0"
     inkscape:deskcolor="#d1d1d1"
     showgrid="false"
     inkscape:zoom="2.5726209"
     inkscape:cx="117.39001"
     inkscape:cy="23.905582"
     inkscape:window-width="1366"
     inkscape:window-height="700"
     inkscape:window-x="0"
     inkscape:window-y="0"
     inkscape:window-maximized="1"
     inkscape:current-layer="svg22" />
  <path
     style="fill:#000000;stroke-width:0.293108"
     d="m 94.513664,68.55576 c -4.938478,-1.486995 -5.610488,-6.983958 -1.347773,-11.024579 2.645327,-2.507507 5.372694,-3.856399 13.501859,-6.677693 4.63511,-1.608655 9.07872,-3.418832 11.94598,-4.866406 1.4673,-0.740787 1.74426,-1.046119 3.00835,-3.31659 0.76575,-1.37538 1.39226,-2.564956 1.39226,-2.643506 0,-0.0785 -0.82693,0.684124 -1.83764,1.694828 -1.98201,1.981996 -3.86463,3.117243 -5.23403,3.156187 -1.90276,0.05406 -3.05485,-1.369336 -2.84966,-3.520855 l 0.10767,-1.129464 -1.88352,1.597841 c -3.39218,2.877672 -5.60739,3.340474 -6.79889,1.420423 -0.45651,-0.735635 -0.53632,-1.224185 -0.39043,-2.390172 l 0.18337,-1.465536 -1.96738,2.136554 c -2.16201,2.347913 -3.667135,3.285948 -5.272495,3.285948 -5.545925,0 -4.552953,-8.355225 1.76153,-14.822067 2.287515,-2.342704 4.428145,-3.588325 6.610915,-3.846843 1.99384,-0.236132 3.92698,0.358589 4.84022,1.489082 0.40533,0.50177 1.06932,1.285944 1.47552,1.742601 0.66633,0.749101 0.69817,0.892404 0.32572,1.465538 -2.81645,4.334102 -5.51531,11.333708 -4.36996,11.333708 1.04103,0 6.79888,-5.272722 6.79888,-6.226033 0,-0.51017 2.57651,-5.827584 3.64002,-7.512297 0.48742,-0.772113 0.98009,-1.21019 1.36105,-1.21019 0.87957,0 2.25977,0.793129 2.45598,1.411306 0.10634,0.335032 -0.64703,2.246185 -1.99434,5.059337 -2.08532,4.354086 -3.41095,7.706326 -3.41095,8.625599 0,1.053117 1.69559,0.125149 3.84441,-2.103966 2.09008,-2.168188 3.52708,-4.157249 5.93931,-8.22104 2.21053,-3.724002 3.25523,-5.064805 3.94515,-5.063247 0.69375,0.0011 2.39208,1.092081 2.39208,1.535994 0,0.356454 -3.49959,8.570574 -5.08424,11.933537 -0.41458,0.879844 -0.70457,1.648954 -0.64442,1.709119 0.24277,0.242769 5.02472,-2.786179 5.75137,-3.642987 0.25432,-0.299862 0.61744,-1.089484 0.80698,-1.75471 0.81717,-2.868265 4.6853,-7.526025 7.72991,-9.307912 1.84073,-1.077302 4.33441,-1.352986 5.68064,-0.628005 1.33819,0.72067 1.67256,1.813169 1.12214,3.66661 -0.65714,2.212815 -2.76314,4.154232 -6.40784,5.907093 -1.6202,0.779212 -3.10765,1.418638 -3.30544,1.420958 -0.94595,0.01122 -1.89662,3.197217 -1.29143,4.328065 0.71996,1.345237 3.1455,0.953954 6.08508,-0.981641 2.36943,-1.560181 6.95899,-6.06178 8.9024,-8.731783 1.47759,-2.03004 2.34486,-2.73436 2.34486,-1.90428 0,0.814528 -3.03403,4.754472 -5.8492,7.595709 -5.81767,5.871524 -9.78358,7.73081 -13.08306,6.133566 -1.20599,-0.583813 -2.17154,-1.933602 -2.17154,-3.035698 0,-0.65344 -0.38498,-0.587559 -1.67235,0.286169 -0.61171,0.415155 -2.22498,1.305469 -3.58508,1.978486 -1.67764,0.830145 -2.62024,1.489898 -2.93106,2.051568 -8.66561,15.658014 -17.78827,23.429672 -27.383685,23.328328 -1.311944,-0.01388 -2.74622,-0.133858 -3.187285,-0.266654 z m 4.192761,-2.232256 c 4.703255,-1.395456 9.386815,-4.957402 14.409685,-10.958872 2.19972,-2.628292 5.5016,-7.085462 5.5016,-7.426546 0,-0.08588 -1.00704,0.309155 -2.23786,0.877834 -1.23083,0.568676 -4.23025,1.757213 -6.66538,2.641188 -2.43512,0.883978 -5.54739,2.070811 -6.91615,2.637412 -4.950505,2.049265 -8.787501,4.806264 -10.001885,7.186662 -0.616233,1.207906 -0.73274,3.175826 -0.242297,4.092251 0.729037,1.362221 3.382223,1.771944 6.152277,0.950071 z m 2.417015,-25.989388 c 3.4382,-3.483125 7.51288,-10.013483 7.08641,-11.357173 -0.49482,-1.559029 -4.33975,0.451853 -6.56776,3.434902 -2.428645,3.251634 -4.652995,8.676613 -3.994485,9.742109 0.45796,0.740988 1.4722,0.209969 3.475835,-1.819838 z m 41.15031,-7.072259 c 1.28974,-1.168145 3.01681,-3.694934 3.01681,-4.413779 0,-0.086 -0.35599,-0.156296 -0.7911,-0.156296 -0.56908,0 -1.16548,0.4014 -2.12504,1.430284 -1.25757,1.348423 -2.95542,3.898402 -3.42022,5.13675 -0.2061,0.549023 -0.19349,0.549023 0.76078,0 0.5337,-0.307077 1.68514,-1.205704 2.55877,-1.996959 z M 27.520592,50.634024 C 25.75764,49.956629 23.941153,48.235942 23.0537,46.402698 l -0.587116,-1.212801 -2.02619,-0.169877 c -5.354277,-0.448877 -8.540153,-4.05101 -8.608556,-9.733302 -0.03537,-2.939343 0.434086,-4.930314 1.866118,-7.913927 2.819166,-5.873677 8.751197,-10.683594 14.849158,-12.040261 1.97616,-0.439658 2.498535,-0.699535 3.918507,-1.949444 3.036055,-2.672446 6.394318,-4.036453 9.937965,-4.036453 3.527983,0 5.904918,1.281932 7.234744,3.901861 2.694932,5.309343 -0.799902,14.77819 -8.198024,22.211605 -4.964352,4.988027 -10.406044,8.173673 -16.018206,9.377267 l -1.435372,0.307829 0.595994,1.010125 c 3.613408,6.124284 11.368935,3.610329 22.22656,-7.204753 3.359426,-3.346259 6.772516,-7.166176 11.130417,-12.457102 4.332942,-5.260607 8.099301,-9.669963 10.139842,-11.870883 0.822045,-0.886655 2.076453,-2.258179 2.78757,-3.047825 0.711111,-0.789646 2.980773,-2.916384 5.043684,-4.726073 4.129893,-3.6229382 6.802163,-5.2280527 8.443093,-5.0713975 0.900614,0.086007 0.992296,0.1793181 0.957113,0.9744131 -0.02155,0.4836292 -1.323089,3.6491911 -2.892652,7.0345914 -5.735041,12.370013 -8.348701,18.96343 -10.224671,25.793537 -0.981219,3.572474 -1.93884,8.304992 -1.93884,9.581709 0,0.800521 0.477131,0.407237 0.682456,-0.562536 0.454758,-2.147905 7.249688,-13.750044 11.719511,-20.010728 4.95125,-6.934996 13.52604,-16.05066 18.237035,-19.38739 3.7065,-2.6252682 8.06009,-4.5410092 8.75053,-3.8505603 0.091,0.090982 -0.72163,1.0407797 -1.80576,2.1107429 -3.74339,3.6945107 -7.05071,8.7153034 -10.821275,16.4275974 -5.036193,10.301005 -7.420738,18.184701 -7.405705,24.484409 0.0089,3.825178 0.630958,4.70174 2.477201,3.492038 1.478892,-0.969008 1.843878,0.559533 0.419749,1.757856 -1.567608,1.319056 -3.553806,0.937667 -5.458281,-1.048091 -1.160073,-1.209602 -1.980196,-3.042536 -2.454507,-5.485759 -0.619837,-3.192797 0.321933,-8.531541 2.48801,-14.104222 2.152912,-5.5388 6.600815,-13.265775 10.092403,-17.532735 0.74997,-0.916512 1.56143,-1.926629 1.80325,-2.244693 0.61276,-0.805995 -2.03771,1.368605 -2.908793,2.386548 -0.390763,0.456636 -1.620792,1.810551 -2.733392,3.008694 -4.814282,5.184401 -9.589833,12.084101 -15.038809,21.72801 -5.122289,9.065732 -6.930728,12.046325 -7.533211,12.41589 -0.801726,0.491792 -1.975097,-0.344311 -2.838952,-2.022916 -0.708719,-1.377195 -0.749087,-1.700906 -0.749087,-6.006645 0,-4.951196 0.32713,-6.957027 1.961216,-12.025259 2.003849,-6.2151 4.909831,-12.506968 8.628696,-18.682395 1.188162,-1.973033 2.160296,-3.6827506 2.160296,-3.7993915 0,-0.8290531 -6.592778,6.8664615 -10.848142,12.6626515 -6.962365,9.483382 -10.786085,14.434788 -13.280897,17.197688 -6.530709,7.232511 -13.588856,12.433395 -19.595776,14.439394 -2.895306,0.966879 -6.360038,1.016478 -8.682012,0.124292 z m -5.562664,-7.94632 c -0.408772,-1.83245 -0.220626,-7.89924 0.324951,-10.478624 1.055525,-4.99017 3.13879,-10.220156 5.429068,-13.629532 1.394718,-2.076199 1.142575,-2.31776 -1.267506,-1.214393 -5.548152,2.540032 -10.065293,7.671583 -12.034591,13.671496 -0.645006,1.96516 -0.740764,6.379193 -0.173833,8.01234 0.930262,2.679707 3.604353,4.503215 6.696018,4.566123 l 1.238381,0.02509 z m 3.469211,0.480478 c 3.712441,-1.10247 9.032385,-4.426312 12.538857,-7.834129 5.501173,-5.346385 9.127052,-11.504224 10.003141,-16.988306 0.709018,-4.438241 -1.672047,-7.533576 -5.795129,-7.533576 -2.231595,0 -4.585799,0.825196 -7.074727,2.479832 -2.739598,1.821285 -2.889036,2.038748 -1.83067,2.663946 2.080265,1.22884 3.046123,4.32748 2.436955,7.818114 -0.401899,2.302924 -2.100275,5.800675 -3.311441,6.819799 -0.818487,0.688714 -0.966407,0.724674 -1.360371,0.330713 -0.393973,-0.393972 -0.322949,-0.614939 0.653231,-2.032304 3.129602,-4.544036 3.306874,-10.190136 0.373247,-11.887993 -0.811381,-0.469591 -0.835788,-0.461621 -1.68435,0.54939 -4.320825,5.148023 -7.798902,16.324002 -7.185796,23.089828 0.170319,1.879504 0.388519,2.99681 0.585259,2.99681 0.03404,0 0.777411,-0.212449 1.651794,-0.472124 z M 155.98782,25.980531 c -1.58064,-1.359696 -0.72015,-3.737135 1.35264,-3.737135 1.93028,0 2.78035,2.58302 1.247,3.789133 -0.99204,0.780361 -1.64726,0.767251 -2.59964,-0.05195 z m 2.54281,-0.411813 c 0.70348,-0.636627 0.68133,-1.714448 -0.0502,-2.445995 -0.74744,-0.747454 -1.47894,-0.743806 -2.28959,0.01137 -0.75719,0.705438 -0.81176,1.373701 -0.18511,2.268227 0.54542,0.778691 1.75994,0.858711 2.52498,0.166348 z m -0.63641,-0.428404 c 0,-0.191045 -0.30503,-0.268963 -0.73276,-0.187198 -0.86044,0.164482 -0.93226,-0.0077 -0.22027,-0.528399 0.28185,-0.20611 0.40657,-0.480623 0.27716,-0.610042 -0.12961,-0.129421 -0.36713,-0.04134 -0.52823,0.195865 -0.23657,0.348187 -0.27515,0.318994 -0.20043,-0.151681 0.10997,-0.693864 0.96703,-0.927853 1.56889,-0.428338 0.31005,0.257312 0.34285,0.460229 0.11809,0.730883 -0.2164,0.260773 -0.21758,0.432418 -0.003,0.564622 0.39065,0.241438 0.40025,0.741562 0.0148,0.741562 -0.16119,0 -0.29316,-0.14727 -0.29316,-0.327272 z"
     id="path436" />
</svg>
